<svg xmlns="http://www.w3.org/2000/svg" viewBox="0 0 71.95 60.46"><defs><style>.cls-1{fill:#62beae;}</style></defs><g id="Layer_2" data-name="Layer 2"><g id="Layer_1-2" data-name="Layer 1"><g id="FdHiih.tif"><path class="cls-1" d="M64.73,19.71C59.2,14.83,52,15.5,46.18,21.34c-3,3-5.3,7-7.71,10.74-.92,1.46-1.38,1.14-2.23.1C33,28.24,29.94,24.1,26.35,20.8c-5.61-5.17-11.52-5.89-17.51-1.64C3.2,23.16.17,29.81,0,38.55c-.15,8,2.28,14.31,7.19,18.66C12.76,62.14,20,61.4,25.85,55.46c3.09-3.14,5.4-7.31,8-11.15.54-.8.8-.85,1.38-.13,2.42,3,4.84,5.92,7.32,8.78,3.9,4.51,8.14,7.72,13.5,7.45C64.78,60,72,49.93,72,37.22,71.79,30.12,69.52,23.93,64.73,19.71ZM31,45.15c-2,3.15-3.94,6.48-6.39,9.08-2.27,2.4-4.8,3.71-7.93,3.59-7,0-12.59-7.77-12.41-17.45.14-7.88,4.57-14.48,10.24-15.18,2.38-.29,4.52.82,6.54,2.47,3.62,3,6.55,7.08,9.66,10.9.82,1,2.18,1.79,2.28,3.14S31.74,44,31,45.15Zm26.61,6.54c-3,.5-5.51-1.17-7.87-3.38C45.9,44.69,42.69,40,39.16,35.89A.93.93,0,0,1,39,34.58c3.12-4.39,5.6-9.7,9.47-13,4.11-3.51,8.42-3.44,12.63-.36S67.45,29.34,67.66,35C67.67,44,63.48,50.7,57.62,51.69Z"/></g><circle class="cls-1" cx="14.78" cy="6.67" r="6.67"/><circle class="cls-1" cx="56.59" cy="6.67" r="6.67"/></g></g></svg>