<svg class="h-6 w-6" viewBox="0 0 24 24" fill="currentColor" aria-hidden="true"><path d="m21.914 1.854 1.232 1.232a2 2 0 0 1 0 2.828l-8.407 8.408a2 2 0 0 1-.782.483l-3.271 1.09c-.977.326-1.907-.604-1.581-1.58l1.09-3.272a2 2 0 0 1 .483-.782l8.408-8.407a2 2 0 0 1 2.828 0Zm-1.768 1.06-8.407 8.408a.5.5 0 0 0-.12.195l-.933 2.797 2.797-.932a.5.5 0 0 0 .195-.121l8.408-8.407a.5.5 0 0 0 0-.708l-1.232-1.232a.5.5 0 0 0-.708 0Z"></path><path d="M4.75 3A3.75 3.75 0 0 0 1 6.75v10.5A3.75 3.75 0 0 0 4.75 21h14.5A3.75 3.75 0 0 0 23 17.25V12h-1.5v5.25a2.25 2.25 0 0 1-2.25 2.25H4.75a2.25 2.25 0 0 1-2.25-2.25V6.75A2.25 2.25 0 0 1 4.75 4.5H12V3H4.75Z"></path></svg>